<svg xmlns="http://www.w3.org/2000/svg" height="640" viewBox="0 0 480 480" width="640"  fill="#fdd020" xmlns:v="https://vecta.io/nano"><path d="M376 240c0 75.109-60.891 136-136 136s-136-60.891-136-136 60.891-136 136-136 136 60.891 136 136zM240 480a8 8 0 0 1-8-8v-64a8 8 0 1 1 16 0v64a8 8 0 0 1-8 8zm0-400a8 8 0 0 1-8-8V8a8 8 0 1 1 16 0v64a8 8 0 0 1-8 8zm-120 40L72 72"/><path d="M120 128a8 8 0 0 1-5.656-2.344l-48-48c-3.031-3.141-2.988-8.129.098-11.215s8.074-3.129 11.215-.098l48 48c2.285 2.289 2.973 5.73 1.734 8.719A8 8 0 0 1 120 128zm288 280l-48-48m48 56a8 8 0 0 1-5.656-2.344l-48-48c-3.031-3.141-2.988-8.129.098-11.215s8.074-3.129 11.215-.098l48 48c2.285 2.289 2.973 5.73 1.734 8.719A8 8 0 0 1 408 416zm-48-296l48-48"/><path d="M360 128a8 8 0 0 1-7.391-4.937 8.01 8.01 0 0 1 1.734-8.719l48-48c3.141-3.031 8.129-2.988 11.215.098s3.129 8.074.098 11.215l-48 48A8 8 0 0 1 360 128zm112 120h-64a8 8 0 1 1 0-16h64a8 8 0 1 1 0 16zm-400 0H8a8 8 0 1 1 0-16h64a8 8 0 1 1 0 16zm0 160l48-48m-48 56a8 8 0 0 1-7.391-4.937 8.01 8.01 0 0 1 1.734-8.719l48-48c3.141-3.031 8.129-2.988 11.215.098s3.129 8.074.098 11.215l-48 48A8 8 0 0 1 72 416zm0 0"/></svg>