<svg xmlns="http://www.w3.org/2000/svg" viewBox="0 0 512.001 512.001"  xmlns:v="https://vecta.io/nano"><path d="M286.434 221.76c-.039-.105-.084-.205-.135-.304L172.172 1.486C171.698.574 170.757 0 169.728 0s-1.97.574-2.444 1.486L53.157 221.456a2.49 2.49 0 0 0-.135.304c-12.028 32.205-10.797 67.164 3.469 98.437s39.857 55.12 72.061 67.146a128.36 128.36 0 0 0 41.092 8.07c.028.001.056.001.084.001l.084-.001a128.42 128.42 0 0 0 41.09-8.07c32.203-12.026 57.796-35.872 72.062-67.146s15.498-66.232 3.47-98.437z" fill="#68ccea"/><path d="M178.528 373.344c-27.357-26.958-42.578-62.959-42.861-101.371-.001-.123.006-.248.021-.371L166.361 3.266 53.157 221.456a2.49 2.49 0 0 0-.135.304c-12.028 32.205-10.797 67.164 3.469 98.437s39.857 55.12 72.061 67.146a128.36 128.36 0 0 0 41.092 8.07c.028.001.056.001.084.001l.084-.001c10.263-.313 20.389-1.856 30.235-4.57a145.4 145.4 0 0 1-21.519-17.499zm284.556-92.564a2.84 2.84 0 0 0-.135-.304l-56.273-108.461c-.474-.912-1.415-1.486-2.444-1.486s-1.97.573-2.444 1.486l-56.273 108.461a2.49 2.49 0 0 0-.135.304c-6.061 16.228-5.44 33.844 1.749 49.602a64.41 64.41 0 0 0 36.313 33.836 64.75 64.75 0 0 0 20.706 4.066c.028.001.056.001.084.001l.084-.001a64.76 64.76 0 0 0 20.705-4.066c33.495-12.509 50.571-49.94 38.063-83.438z" fill="#5abce2"/><path d="M463.084 280.78a2.84 2.84 0 0 0-.135-.304l-56.273-108.461c-.474-.912-1.415-1.486-2.444-1.486l-22.169 128.823c-.021.121-.034.243-.039.365-.938 19.068 5.604 37.356 18.422 51.499 5.492 6.06 11.86 11.038 18.84 14.836a64.75 64.75 0 0 0 5.735-1.833c33.495-12.51 50.571-49.941 38.063-83.439z" fill="#68ccea"/><path d="M350.91 452.145l-37.495-72.271c-.474-.912-1.415-1.486-2.444-1.486s-1.97.574-2.444 1.486l-37.5 72.271c-.052.099-.097.202-.135.305-8.511 22.796 3.108 48.268 25.904 56.783 4.523 1.686 9.264 2.618 14.09 2.767.029.001.057.001.085.001l.085-.001a44.12 44.12 0 0 0 14.089-2.768c22.795-8.513 34.414-33.986 25.901-56.783a2.68 2.68 0 0 0-.136-.304z" fill="#5abce2"/><path d="M351.045 452.449c-.039-.105-.084-.206-.135-.304l-37.495-72.271c-.474-.912-1.415-1.486-2.444-1.486-.293 0-.574.057-.844.145l-15.394 90.566a3.1 3.1 0 0 0-.041.374c-.806 17.134 7.18 32.682 19.971 42.268a44.11 44.11 0 0 0 10.482-2.508c22.795-8.515 34.414-33.988 25.9-56.784z" fill="#68ccea"/></svg>