<svg xmlns="http://www.w3.org/2000/svg" xmlns:xlink="http://www.w3.org/1999/xlink" height="629.333" viewBox="0 -12 472.123 472" width="629.333" xmlns:v="https://vecta.io/nano"><path d="M416.121 160.063c0 57.438-46.559 104-104 104s-104-46.562-104-104 46.563-104 104-104 104 46.563 104 104zm48 8h-16a8 8 0 1 1 0-16h16a8 8 0 1 1 0 16zm-168-136a8 8 0 0 1-8-8v-16a8 8 0 1 1 16 0v16a8 8 0 0 1-8 8zm112 40c-3.234 0-6.148-1.949-7.387-4.941a7.99 7.99 0 0 1 1.734-8.715l16-16c2.008-2.082 4.98-2.914 7.777-2.184a8.01 8.01 0 0 1 5.715 5.715c.73 2.797-.102 5.77-2.184 7.781l-16 16c-1.5 1.5-3.531 2.344-5.656 2.344zm0 0" fill="#fdd020"/><path d="M368.121 360.063c46.93 0 80-37.211 80-83.113-.516-46.41-38.555-83.617-84.965-83.113-5.641.004-11.27.555-16.801 1.648-6.926-32.023-35.375-54.789-68.137-54.535a70.38 70.38 0 0 0-29.039 6.281c-16.066-41.289-59.043-65.5-102.68-57.844s-75.805 45.047-76.855 89.34c.02 10.352 1.855 20.617 5.422 30.336-27.145.16-52.113 14.875-65.402 38.547s-12.848 52.652 1.156 75.91a75.52 75.52 0 0 0 66.543 36.543" fill="#a3d4f7"/><g fill="#60a2d7"><use xlink:href="#B"/><use xlink:href="#B" y="-96"/><use xlink:href="#B" y="-144"/><use xlink:href="#B" y="-48"/></g><defs ><path id="B" d="M328.121 448.063a79.6 79.6 0 0 1-38.023-8.738c-9.645-5.066-20.434-7.57-31.328-7.262-10.891-.305-21.676 2.195-31.32 7.262a79.59 79.59 0 0 1-38.023 8.738 79.55 79.55 0 0 1-38.008-8.738 63.48 63.48 0 0 0-31.297-7.262 8 8 0 1 1 0-16c13.199-.289 26.258 2.715 38 8.734a63.48 63.48 0 0 0 31.305 7.266 63.53 63.53 0 0 0 31.32-7.266c11.754-6.02 24.82-9.023 38.023-8.734a79.64 79.64 0 0 1 38.035 8.734c9.641 5.066 20.43 7.57 31.316 7.266a8 8 0 1 1 0 16zm0 0"/></defs></svg>