<svg xmlns="http://www.w3.org/2000/svg" width="160" height="216" viewBox="0 0 42.333 57.15"  xmlns:v="https://vecta.io/nano"><path d="M21.167 18.026c2.913 0 5.55 1.18 7.459 3.09s3.09 4.546 3.09 7.459-1.18 5.55-3.09 7.459-4.546 3.09-7.459 3.09-5.55-1.18-7.459-3.09-3.09-4.546-3.09-7.459 1.18-5.55 3.09-7.459 4.546-3.09 7.459-3.09zm-3.965 10.996a.45.45 0 1 1 0-.901h3.514v-3.514a.45.45 0 1 1 .901 0v3.514h3.514a.45.45 0 1 1 0 .901h-3.514v3.514a.45.45 0 1 1-.901 0v-3.514zm10.786-7.271c-1.747-1.744-4.159-2.825-6.821-2.825s-5.076 1.08-6.821 2.825-2.825 4.159-2.825 6.821 1.08 5.076 2.825 6.821 4.159 2.825 6.821 2.825 5.076-1.08 6.821-2.825a9.62 9.62 0 0 0 2.825-6.821c0-2.665-1.08-5.076-2.825-6.821z" fill="#ececec" image-rendering="optimizeQuality" shape-rendering="geometricPrecision" text-rendering="geometricPrecision"/></svg>