<svg xmlns="http://www.w3.org/2000/svg" viewBox="0 0 512 512"  xmlns:v="https://vecta.io/nano"><path d="M256.452 512c81.62-.242 148.809-68.446 148.189-150.069-.865-113.99-105.791-234.939-141.317-356.422-1.076-3.68-4.2-5.514-7.323-5.509-3.124-.005-6.248 1.829-7.324 5.509-35.525 121.483-140.452 242.432-141.317 356.422-.62 81.623 66.569 149.827 148.189 150.069" fill="#b2edff"/><path d="M305.561 471.001a12.39 12.39 0 0 1-10.996-6.661c-3.161-6.065-.806-13.548 5.258-16.71 24.548-12.798 42.266-35.524 48.605-62.347 1.577-6.661 8.222-10.79 14.907-9.21 6.657 1.573 10.778 8.25 9.206 14.903-8 33.839-30.331 62.5-61.266 78.621-1.831.952-3.787 1.404-5.714 1.404z" fill="#e8faff"/><path d="M305.999 495.485h-.903c-81.62-.258-148.809-72.863-148.189-159.751.643-90.187 58.761-184.468 103.152-280.032 7.276-15.663 8.196-33.373 3.336-49.945l-.072-.248C262.247 1.829 259.123-.005 256 0c-3.124-.006-6.247 1.829-7.324 5.509-37.83 129.365-154.36 258.126-140.122 378.522C117.251 457.577 181.491 512 255.549 512h.902c25.433-.076 49.46-6.759 70.476-18.382-6.86 1.084-13.812 1.844-20.928 1.867z" fill="#59d8ff"/></svg>