<svg xmlns="http://www.w3.org/2000/svg" width="763.763" height="800.965" viewBox="0 0 202.079 211.922"  xmlns:v="https://vecta.io/nano"><path d="M.2 79.458l185.269-.497-92.784 132.961z"/><path fill="#bbbcbf" d="M.995 51.612l181.99-.596-17.206 27.945H77.073l6.562 9.845h73.094l-17.205 26.255H99.25l21.38 28.74-27.945 39.381z"/><path fill="#5f81c0" d="M0 51.214l167.369-.198-19.293 28.343H58.674l6.962 9.447h77.172l-18.895 26.255H83.238l21.779 27.05-20.487 28.74z"/><path d="M1.094 7.756h18.001v7.657H10.94v2.784h7.16v7.061h-7.16v9.349H1.094zm21.581 13.127h12.729v7.856H22.675zm18.796 4.177l.497.397c1.791 1.293 3.879 2.387 6.066 2.387.995 0 2.586-.398 2.586-1.591s-1.293-1.293-2.187-1.492l-1.988-.299c-3.78-.696-7.061-2.984-7.061-7.16 0-6.364 5.868-9.945 11.735-9.945 2.984 0 5.868.696 8.454 2.287l-2.586 6.962c-1.69-1.194-3.58-2.09-5.668-2.09-.895 0-2.088.299-2.088 1.492 0 .995 1.193 1.094 1.89 1.293l2.288.497c4.077.895 7.06 3.083 7.06 7.657 0 6.464-5.868 9.646-11.636 9.646-3.382 0-7.359-.993-10.342-2.486zM63.349 7.756h18.099v7.359h-8.254V17.7h7.558v6.962h-7.558v2.685h8.553v7.261H63.349zm42.363 10.939c-1.591-1.492-3.48-2.685-5.768-2.685-2.883 0-5.27 2.287-5.27 5.171 0 2.984 2.485 5.27 5.469 5.27 2.187 0 3.978-.995 5.569-2.486l-.298 10.045c-1.591.796-5.171 1.094-6.962 1.094-7.659 0-13.625-5.967-13.625-13.625 0-7.856 6.166-14.122 14.023-14.122 2.187 0 4.474.398 6.564 1.094zm28.244-10.939v15.911c0 7.856-4.973 11.436-12.429 11.436-7.558 0-12.531-3.58-12.531-11.436V7.756h9.844v15.016c0 2.088 0 3.879 2.686 3.879 2.586 0 2.683-1.791 2.683-3.879V7.756zm4.277 0h11.833c6.068 0 11.239 2.586 11.239 9.348 0 4.077-1.591 5.768-5.272 6.962v.198c.499.398 1.095.895 1.692 1.69l5.867 8.652h-11.337l-4.274-8.553h-.198v8.553h-9.547V7.756zm9.547 11.933h.694c1.591 0 3.282-.299 3.282-2.287 0-2.088-1.493-2.287-3.182-2.287h-.796v4.573zm17.304-11.933h18.099v7.359h-8.255V17.7h7.558v6.962h-7.558v2.685h8.553v7.261h-18.396zM196.51 0c-3.282 0-5.67 2.387-5.67 5.67 0 3.182 2.387 5.568 5.67 5.568s5.569-2.387 5.569-5.668c0-3.182-2.387-5.569-5.569-5.569zm-.102 1.391c2.288 0 4.079 1.69 4.079 4.177s-1.791 4.376-4.079 4.376-3.978-1.89-3.978-4.376c.001-2.386 1.791-4.177 3.978-4.177zm-2.187 1.194v6.066h1.295V6.066h.596l1.393 2.586h1.591l-1.591-2.685c1.092-.101 1.49-.596 1.49-1.592 0-1.193-.796-1.791-2.485-1.791h-2.289zm1.295 2.486V3.679h1.092c.697 0 .995.2.995.696a.68.68 0 0 1-.694.696h-1.393z"/></svg>