<?xml version="1.0" encoding="UTF-8" standalone="no"?>
<svg
   xmlns:dc="http://purl.org/dc/elements/1.1/"
   xmlns:cc="http://creativecommons.org/ns#"
   xmlns:rdf="http://www.w3.org/1999/02/22-rdf-syntax-ns#"
   xmlns:svg="http://www.w3.org/2000/svg"
   xmlns="http://www.w3.org/2000/svg"
   xmlns:sodipodi="http://sodipodi.sourceforge.net/DTD/sodipodi-0.dtd"
   xmlns:inkscape="http://www.inkscape.org/namespaces/inkscape"
   width="202.07869mm"
   height="211.92223mm"
   viewBox="0 0 202.07869 211.92223"
   version="1.1"
   id="svg947"
   inkscape:version="1.0.2 (1.0.2+r75+1)"
   sodipodi:docname="drawing-1.svg">
  <defs
     id="defs941" />
  <sodipodi:namedview
     id="base"
     pagecolor="#ffffff"
     bordercolor="#666666"
     borderopacity="1.0"
     inkscape:pageopacity="0.0"
     inkscape:pageshadow="2"
     inkscape:zoom="0.35"
     inkscape:cx="385.826"
     inkscape:cy="381.55445"
     inkscape:document-units="mm"
     inkscape:current-layer="layer1"
     inkscape:document-rotation="0"
     showgrid="false"
     inkscape:window-width="1514"
     inkscape:window-height="948"
     inkscape:window-x="100"
     inkscape:window-y="27"
     inkscape:window-maximized="0"
     fit-margin-top="0"
     fit-margin-left="0"
     fit-margin-right="0"
     fit-margin-bottom="0" />
  <metadata
     id="metadata944">
    <rdf:RDF>
      <cc:Work
         rdf:about="">
        <dc:format>image/svg+xml</dc:format>
        <dc:type
           rdf:resource="http://purl.org/dc/dcmitype/StillImage" />
        <dc:title></dc:title>
      </cc:Work>
    </rdf:RDF>
  </metadata>
  <g
     inkscape:label="Layer 1"
     inkscape:groupmode="layer"
     id="layer1"
     transform="translate(-3.7502044,-47.213718)">
    <path
       d="M 3.9499044,126.67216 189.21935,126.17489 96.435187,259.13595 Z"
       id="path835"
       style="stroke-width:1.32252" />
    <path
       fill="#bbbcbf"
       d="M 4.7447444,98.82646 186.73433,98.23 169.52832,126.17489 H 80.822812 l 6.562354,9.84485 h 73.094464 l -17.20469,26.2547 h -40.27476 l 21.37989,28.73973 -27.944883,39.38073 z"
       id="path837"
       style="stroke-width:1.32252" />
    <path
       fill="#5f81c0"
       d="M 3.7502044,98.42838 171.11932,98.23 151.82637,126.57297 H 62.423884 l 6.961759,9.44677 h 77.171797 l -18.89487,26.2547 H 86.988409 l 21.779291,27.04955 -20.487187,28.73972 z"
       id="path839"
       style="stroke-width:1.32252" />
    <path
       d="M 4.8439344,54.970308 H 22.844774 v 7.6574 h -8.15467 v 2.78391 h 7.16014 v 7.06095 h -7.16014 v 9.3489 H 4.8439344 Z m 21.5809096,13.12735 h 12.72927 v 7.85578 h -12.72927 z m 18.79568,4.17653 0.49727,0.39675 c 1.79069,1.29343 3.87895,2.38716 6.06641,2.38716 0.99453,0 2.58553,-0.39808 2.58553,-1.591 0,-1.19291 -1.29343,-1.29342 -2.18746,-1.4918 l -1.98775,-0.29889 c -3.77976,-0.69565 -7.06094,-2.98361 -7.06094,-7.16014 0,-6.36397 5.86803,-9.94536 11.73474,-9.94536 2.98361,0 5.86803,0.69565 8.45356,2.28664 l -2.58553,6.96176 c -1.69019,-1.19424 -3.58007,-2.08959 -5.66833,-2.08959 -0.89535,0 -2.08826,0.29889 -2.08826,1.49181 0,0.99453 1.19291,1.09372 1.88988,1.29342 l 2.28796,0.49727 c 4.07734,0.89535 7.05962,3.0828 7.05962,7.6574 0,6.46449 -5.86803,9.64648 -11.63554,9.64648 -3.38169,0 -7.35852,-0.99322 -10.34212,-2.48634 z m 21.87848,-17.30388 h 18.098711 v 7.35851 h -8.253859 v 2.58553 h 7.558212 v 6.96176 h -7.558212 v 2.68472 h 8.552748 v 7.26064 h -18.3976 z m 42.363026,10.93858 c -1.591,-1.4918 -3.47956,-2.68472 -5.76752,-2.68472 -2.8831,0 -5.270253,2.28664 -5.270253,5.17106 0,2.98361 2.485023,5.27025 5.468633,5.27025 2.18745,0 3.97814,-0.99454 5.56914,-2.48634 l -0.29757,10.04455 c -1.591,0.79616 -5.17106,1.09373 -6.96176,1.09373 -7.658723,0 -13.624619,-5.96722 -13.624619,-13.62462 0,-7.85578 6.165596,-14.12189 14.022699,-14.12189 2.18745,0 4.47409,0.39808 6.56368,1.09373 z m 28.24377,-10.93858 v 15.91126 c 0,7.85578 -4.97268,11.43585 -12.42906,11.43585 -7.55821,0 -12.53089,-3.58007 -12.53089,-11.43585 v -15.91126 h 9.84353 v 15.01591 c 0,2.08827 0,3.87896 2.68604,3.87896 2.58553,0 2.6834,-1.79069 2.6834,-3.87896 v -15.01591 z m 4.27704,0 h 11.8326 c 6.06773,0 11.23879,2.58553 11.23879,9.34759 0,4.07733 -1.59099,5.76751 -5.27157,6.96175 v 0.19838 c 0.49859,0.39808 1.09505,0.89535 1.69151,1.69018 l 5.8667,8.65194 h -11.33665 l -4.27439,-8.55275 h -0.19838 v 8.55275 h -9.54729 v -26.84984 z m 9.54729,11.93312 h 0.69432 c 1.59099,0 3.2825,-0.29889 3.2825,-2.28664 0,-2.08827 -1.49313,-2.28664 -3.18199,-2.28664 h -0.79616 v 4.57328 z M 168.834,54.970308 h 18.09871 v 7.35851 h -8.25518 v 2.58553 h 7.55821 v 6.96176 h -7.55821 v 2.68472 h 8.55275 v 7.26064 H 168.834 Z m 31.42576,-7.75659 c -3.28249,0 -5.66965,2.38715 -5.66965,5.66965 0,3.18199 2.38716,5.56782 5.66965,5.56782 3.27986,0 5.56914,-2.38715 5.56914,-5.66833 0,-3.18199 -2.38715,-5.56914 -5.56914,-5.56914 z m -0.10183,1.39129 c 2.28796,0 4.07866,1.69019 4.07866,4.17653 0,2.48634 -1.7907,4.37622 -4.07866,4.37622 -2.28664,0 -3.97815,-1.88988 -3.97815,-4.37622 0.001,-2.38583 1.7907,-4.17653 3.97815,-4.17653 z m -2.18745,1.19424 v 6.06641 h 1.29475 v -2.58553 h 0.59645 l 1.39262,2.58553 h 1.591 l -1.591,-2.68472 c 1.0924,-0.10051 1.49048,-0.59646 1.49048,-1.59232 0,-1.19291 -0.79616,-1.79069 -2.48502,-1.79069 h -2.28928 z m 1.29475,2.48634 v -1.39261 h 1.0924 c 0.69697,0 0.99454,0.1997 0.99454,0.69564 a 0.67845371,0.67845371 0 0 1 -0.69432,0.69565 h -1.39262 z"
       id="path841"
       style="stroke-width:1.32252" />
  </g>
</svg>
