<svg xmlns="http://www.w3.org/2000/svg" height="629.333" viewBox="1 0 471 472" width="629.333"  xmlns:v="https://vecta.io/nano"><path d="M400.336 192c0 66.273-53.727 120-120 120s-120-53.727-120-120 53.723-120 120-120 120 53.727 120 120zm-120-144a8 8 0 0 1-8-8V8a8 8 0 1 1 16 0v32a8 8 0 0 1-8 8zm184 152h-32a8 8 0 1 1 0-16h32a8 8 0 1 1 0 16zm0 0" fill="#fdd020"/><path d="M376.336 296c-5.852 0-11.691.586-17.426 1.742-4.324-21.582-18.305-39.992-37.934-49.957a71.86 71.86 0 0 0-62.715-1.137c-18.078-49.797-73.102-75.508-122.898-57.43s-75.508 73.105-57.43 122.902C34.312 313.5-.145 349.602.508 393.242S36.691 471.93 80.336 472h296c48.598 0 88-39.398 88-88s-39.402-88-88-88zm0 0" fill="#a3d4f7"/><g fill="#fdd020"><path d="M168.336 80l-32-32"/><path d="M168.336 88c-2.125 0-4.156-.844-5.656-2.344l-32-32a8 8 0 1 1 11.312-11.312l32 32c2.285 2.289 2.969 5.73 1.73 8.719S171.57 88 168.336 88zm224-8l32-32m-32 40a8 8 0 0 1-5.656-13.656l32-32c2.008-2.078 4.98-2.914 7.777-2.18a8 8 0 0 1 5.715 5.711 8.01 8.01 0 0 1-2.18 7.781l-32 32A8 8 0 0 1 392.336 88zm0 0"/></g></svg>