<svg xmlns="http://www.w3.org/2000/svg" xmlns:xlink="http://www.w3.org/1999/xlink" height="618.667" viewBox="-88 0 464 464" width="618.667" xmlns:v="https://vecta.io/nano"><path d="M288 314.855C288 397.223 223.527 464 144 464S0 397.223 0 314.855 144 0 144 0s144 232.488 144 314.855zm0 0" fill="#60a2d7"/><g fill="#a3d4f7"><path d="M104 392a8 8 0 0 1-7.105-4.34c-1.371-2.664-1.137-5.871.602-8.309l80-112a8 8 0 1 1 13.023 9.297l-80 112A8 8 0 0 1 104 392zm0 0"/><use xlink:href="#B"/><use xlink:href="#B" x="80" y="64"/></g><defs ><path id="B" d="M104 328c-13.457 0-24-14.055-24-32s10.543-32 24-32 24 14.055 24 32-10.543 32-24 32zm0-48c-3.266 0-8 6.23-8 16s4.734 16 8 16 8-6.23 8-16-4.734-16-8-16zm0 0"/></defs></svg>