<?xml version="1.0" encoding="UTF-8" standalone="no"?>
<svg
   xmlns:dc="http://purl.org/dc/elements/1.1/"
   xmlns:cc="http://creativecommons.org/ns#"
   xmlns:rdf="http://www.w3.org/1999/02/22-rdf-syntax-ns#"
   xmlns:svg="http://www.w3.org/2000/svg"
   xmlns="http://www.w3.org/2000/svg"
   xmlns:xlink="http://www.w3.org/1999/xlink"
   xmlns:sodipodi="http://sodipodi.sourceforge.net/DTD/sodipodi-0.dtd"
   xmlns:inkscape="http://www.inkscape.org/namespaces/inkscape"
   viewBox="0 0 792 612"
   version="1.1"
   id="svg1459"
   sodipodi:docname="landscape.svg"
   inkscape:version="1.0.2 (1.0.2+r75+1)">
  <metadata
     id="metadata1463">
    <rdf:RDF>
      <cc:Work
         rdf:about="">
        <dc:format>image/svg+xml</dc:format>
        <dc:type
           rdf:resource="http://purl.org/dc/dcmitype/StillImage" />
      </cc:Work>
    </rdf:RDF>
  </metadata>
  <sodipodi:namedview
     pagecolor="#ffffff"
     bordercolor="#666666"
     borderopacity="1"
     objecttolerance="10"
     gridtolerance="10"
     guidetolerance="10"
     inkscape:pageopacity="0"
     inkscape:pageshadow="2"
     inkscape:window-width="1920"
     inkscape:window-height="1016"
     id="namedview1461"
     showgrid="false"
     inkscape:zoom="1.1742424"
     inkscape:cx="396"
     inkscape:cy="306"
     inkscape:window-x="0"
     inkscape:window-y="27"
     inkscape:window-maximized="1"
     inkscape:current-layer="svg1459" />
  <linearGradient
     id="A"
     x1="396"
     x2="396"
     y1="0"
     y2="456"
     gradientUnits="userSpaceOnUse">
    <stop
       stop-color="#202b48"
       offset=".028"
       id="stop1307" />
    <stop
       stop-color="#5b72a6"
       offset=".305"
       id="stop1309" />
    <stop
       stop-color="#977aa6"
       offset=".531"
       id="stop1311" />
    <stop
       stop-color="#d19eaf"
       offset=".71"
       id="stop1313" />
    <stop
       stop-color="#f4f3b4"
       offset=".995"
       id="stop1315" />
  </linearGradient>
  <path
     d="M0 0h792v456H0z"
     fill="url(#A)"
     id="path1318" />
  <g
     opacity=".59"
     fill="#f1f2f2"
     id="g1362">
    <use
       xlink:href="#P"
       id="use1320" />
    <path
       d="m460 83.5c3.2 0 3.2-5 0-5s-3.2 5 0 5z"
       id="path1322" />
    <use
       xlink:href="#Q"
       id="use1324" />
    <use
       xlink:href="#Q"
       x="69"
       y="42"
       id="use1326" />
    <use
       xlink:href="#Q"
       x="228"
       y="214"
       id="use1328" />
    <use
       xlink:href="#Q"
       x="318"
       y="145"
       id="use1330" />
    <use
       xlink:href="#Q"
       x="436"
       y="230"
       id="use1332" />
    <use
       xlink:href="#Q"
       x="541"
       y="148"
       id="use1334" />
    <use
       xlink:href="#Q"
       x="603"
       y="126"
       id="use1336" />
    <use
       xlink:href="#Q"
       x="607"
       y="194"
       id="use1338" />
    <use
       xlink:href="#Q"
       x="490"
       y="79"
       id="use1340" />
    <use
       xlink:href="#Q"
       x="577"
       y="-33"
       id="use1342" />
    <use
       xlink:href="#Q"
       x="-134"
       y="230"
       id="use1344" />
    <use
       xlink:href="#Q"
       x="-155"
       y="91"
       id="use1346" />
    <use
       xlink:href="#Q"
       x="-66"
       y="14"
       id="use1348" />
    <use
       xlink:href="#P"
       x="-251"
       y="19"
       id="use1350" />
    <use
       xlink:href="#P"
       x="-225"
       y="82"
       id="use1352" />
    <use
       xlink:href="#P"
       x="130"
       y="46"
       id="use1354" />
    <use
       xlink:href="#P"
       x="18"
       y="148"
       id="use1356" />
    <use
       xlink:href="#P"
       x="-164"
       y="286"
       id="use1358" />
    <use
       xlink:href="#P"
       x="-69"
       y="198"
       id="use1360" />
  </g>
  <radialGradient
     id="B"
     cx="364.35"
     cy="411.29"
     r="55.708"
     gradientUnits="userSpaceOnUse">
    <stop
       stop-color="#f4f3b0"
       offset=".01"
       id="stop1364" />
    <stop
       stop-color="#f9ed32"
       offset="1"
       id="stop1366" />
  </radialGradient>
  <linearGradient
     id="C"
     x1="217.2"
     x2="217.2"
     y1="110.9"
     y2="263.03"
     gradientUnits="userSpaceOnUse">
    <stop
       stop-color="#ba9bc9"
       offset="0"
       id="stop1371" />
    <stop
       stop-color="#f4f3b4"
       offset=".995"
       id="stop1373" />
  </linearGradient>
  <path
     d="M77 253c-16.7-3.9-27.4-20.3-24.2-36.8 3.2-16.9 20-28.4 37.2-25.2-1-10.9 6.4-20.8 17-23 10.5-2.2 21.1 3.8 24.6 14-.6-3-3.3-18.2 6.4-33 9.4-14.5 23.9-18.3 27-19 1.9-10.3 10.2-18.1 20-19 11.2-1.1 22.1 7 24.4 19 16.3-5.9 34.3-.9 44.6 12 8.7 11 10.5 26.1 5 39.5 6.7-11 19.5-16.8 32-14.5 12.9 2.4 23.1 12.9 25 26 .6-.3 14-7.6 27 0 9.2 5.4 14.4 16.1 13 27 4.9-6.7 13.2-8.9 19-6 5.9 3 8.4 12.3 6.6 18.8C374.4 258 298 261 298 261s-48.4 2.3-99 2c-47.8-.3-71.7-2.8-82-4a590.2 590.2 0 0 1-40-6z"
     opacity=".68"
     fill="url(#C)"
     id="path1376" />
  <linearGradient
     id="D"
     x1="663.58"
     x2="663.58"
     y1="29.904"
     y2="105.97"
     gradientUnits="userSpaceOnUse">
    <stop
       stop-color="#ba9bc9"
       offset="0"
       id="stop1378" />
    <stop
       stop-color="#f4f3b4"
       offset=".995"
       id="stop1380" />
  </linearGradient>
  <path
     d="M572.2 101c-10.9-1.9-17.8-10.2-15.8-18.4 2.1-8.5 13-14.2 24.3-12.6-.6-5.4 4.2-10.4 11.1-11.5 6.8-1.1 13.8 1.9 16.1 7-.4-1.5-2.1-9.1 4.1-16.5 6.1-7.2 15.6-9.1 17.6-9.5 1.2-5.2 6.7-9 13-9.5 7.3-.5 14.4 3.5 15.9 9.5 10.6-2.9 22.4-.5 29.1 6 5.7 5.5 6.9 13.1 3.3 19.7 4.3-5.5 12.7-8.4 20.9-7.2 8.4 1.2 15 6.4 16.3 13 .4-.2 9.1-3.8 17.6 0 6 2.7 9.4 8 8.5 13.5 3.2-3.4 8.6-4.5 12.4-3 3.9 1.5 5.5 6.1 4.3 9.4-4.7 12.6-54.5 14.1-54.5 14.1s-31.6 1.2-64.6 1c-31.2-.2-46.8-1.4-53.5-2-10.8-1-19.8-2.1-26.1-3z"
     opacity=".82"
     fill="url(#D)"
     id="path1383" />
  <linearGradient
     id="E"
     x1="556.005"
     x2="556.005"
     y1="55.904"
     y2="122"
     gradientUnits="userSpaceOnUse">
    <stop
       stop-color="#ba9bc9"
       offset="0"
       id="stop1385" />
    <stop
       stop-color="#f4f3b4"
       offset=".995"
       id="stop1387" />
  </linearGradient>
  <path
     d="M618.6 117.6c7.4-1.7 12.2-8.8 10.8-16-1.4-7.4-8.9-12.3-16.6-10.9.4-4.7-2.9-9-7.6-10-4.7-.9-9.4 1.7-11 6.1.3-1.3 1.5-7.9-2.8-14.3-4.2-6.3-10.7-7.9-12-8.3-.8-4.5-4.6-7.8-8.9-8.3-5-.5-9.9 3.1-10.9 8.3-7.3-2.6-15.3-.4-19.9 5.2-3.9 4.8-4.7 11.4-2.2 17.2-3-4.8-8.7-7.3-14.3-6.3-5.8 1-10.3 5.6-11.2 11.3-.3-.1-6.2-3.3-12 0-4.1 2.3-6.4 7-5.8 11.7-2.2-2.9-5.9-3.9-8.5-2.6s-3.8 5.3-2.9 8.2c3.2 10.9 37.3 12.2 37.3 12.2s21.6 1 44.2.9c21.3-.1 32-1.2 36.6-1.7a326.02 326.02 0 0 0 17.7-2.7z"
     opacity=".92"
     fill="url(#E)"
     id="path1390" />
  <linearGradient
     id="F"
     x1="248.47"
     x2="248.47"
     y1="327.57"
     y2="383.6"
     gradientUnits="userSpaceOnUse">
    <stop
       stop-color="#ba9bc9"
       offset="0"
       id="stop1392" />
    <stop
       stop-color="#f4f3b4"
       offset=".995"
       id="stop1394" />
  </linearGradient>
  <path
     d="M183.5 379.9c-7.7-1.4-12.7-7.5-11.2-13.6 1.5-6.2 9.3-10.5 17.3-9.3-.5-4 3-7.7 7.9-8.5s9.8 1.4 11.4 5.2c-.3-1.1-1.5-6.7 2.9-12.2 4.4-5.3 11.1-6.7 12.5-7 .9-3.8 4.7-6.7 9.3-7 5.2-.4 10.2 2.6 11.3 7 7.6-2.2 15.9-.3 20.7 4.4 4 4 4.9 9.6 2.3 14.5 3.1-4.1 9-6.2 14.8-5.3 6 .9 10.7 4.7 11.6 9.6.3-.1 6.5-2.8 12.5 0 4.3 2 6.7 5.9 6 9.9 2.3-2.5 6.1-3.3 8.8-2.2s3.9 4.5 3 6.9c-3.3 9.3-38.7 10.4-38.7 10.4s-22.5.9-45.9.7c-22.2-.1-33.3-1-38-1.5-7.6-.5-14-1.3-18.5-2z"
     opacity=".79"
     fill="url(#F)"
     id="path1397" />
  <linearGradient
     id="G"
     x1="77"
     x2="77"
     y1="299.93"
     y2="355.96"
     gradientUnits="userSpaceOnUse">
    <stop
       stop-color="#ba9bc9"
       offset="0"
       id="stop1399" />
    <stop
       stop-color="#f4f3b4"
       offset=".995"
       id="stop1401" />
  </linearGradient>
  <path
     d="M12 352.3C4.3 350.9-.7 344.8.8 338.7c1.5-6.2 9.3-10.5 17.3-9.3-.5-4 3-7.7 7.9-8.5s9.8 1.4 11.4 5.2c-.3-1.1-1.5-6.7 2.9-12.2 4.4-5.3 11.1-6.7 12.5-7 .9-3.8 4.7-6.7 9.3-7 5.2-.4 10.2 2.6 11.3 7 7.6-2.2 15.9-.3 20.7 4.4 4 4 4.9 9.6 2.3 14.5 3.1-4.1 9-6.2 14.8-5.3 6 .9 10.7 4.7 11.6 9.6.3-.1 6.5-2.8 12.5 0 4.3 2 6.7 5.9 6 9.9 2.3-2.5 6.1-3.3 8.8-2.2s3.9 4.5 3 6.9c-3.3 9.3-38.7 10.4-38.7 10.4s-22.5.9-45.9.7c-22.2-.1-33.3-1-38-1.5-7.6-.5-14-1.4-18.5-2z"
     opacity=".79"
     fill="url(#G)"
     id="path1404" />
  <linearGradient
     id="H"
     x1="598.53"
     x2="598.53"
     y1="288.97"
     y2="345"
     gradientUnits="userSpaceOnUse">
    <stop
       stop-color="#ba9bc9"
       offset="0"
       id="stop1406" />
    <stop
       stop-color="#f4f3b4"
       offset=".995"
       id="stop1408" />
  </linearGradient>
  <path
     d="M533.5 341.3c-7.7-1.4-12.7-7.5-11.2-13.6 1.5-6.2 9.3-10.5 17.3-9.3-.5-4 3-7.7 7.9-8.5s9.8 1.4 11.4 5.2c-.3-1.1-1.5-6.7 2.9-12.2 4.4-5.3 11.1-6.7 12.5-7 .9-3.8 4.7-6.7 9.3-7 5.2-.4 10.2 2.6 11.3 7 7.6-2.2 15.9-.3 20.7 4.4 4 4 4.9 9.6 2.3 14.5 3.1-4.1 9-6.2 14.8-5.3 6 .9 10.7 4.7 11.6 9.6.3-.1 6.5-2.8 12.5 0 4.3 2 6.7 5.9 6 9.9 2.3-2.5 6.1-3.3 8.8-2.2s3.9 4.5 3 6.9c-3.3 9.3-38.7 10.4-38.7 10.4s-22.5.9-45.9.7c-22.2-.1-33.3-1-38-1.5-7.6-.5-13.9-1.3-18.5-2z"
     opacity=".79"
     fill="url(#H)"
     id="path1411" />
  <linearGradient
     id="I"
     x1="532.94"
     x2="532.94"
     y1="293.32"
     y2="369.39"
     gradientUnits="userSpaceOnUse">
    <stop
       stop-color="#ba9bc9"
       offset="0"
       id="stop1413" />
    <stop
       stop-color="#f4f3b4"
       offset=".995"
       id="stop1415" />
  </linearGradient>
  <path
     d="M437 364.4c-11.4-1.9-18.7-10.2-16.6-18.4 2.2-8.5 13.7-14.2 25.5-12.6-.7-5.4 4.4-10.4 11.6-11.5s14.4 1.9 16.9 7c-.4-1.5-2.2-9.1 4.4-16.5 6.4-7.2 16.4-9.1 18.5-9.5 1.3-5.2 7-9 13.7-9.5 7.7-.5 15.1 3.5 16.7 9.5 11.2-2.9 23.5-.5 30.5 6 5.9 5.5 7.2 13.1 3.4 19.8 4.6-5.5 13.3-8.4 21.9-7.2 8.9 1.2 15.8 6.4 17.1 13 .4-.2 9.6-3.8 18.5 0 6.3 2.7 9.8 8 8.9 13.5 3.4-3.4 9.1-4.5 13-3 4.1 1.5 5.8 6.1 4.5 9.4-4.9 12.6-57.1 14.1-57.2 14.1 0 0-33.1 1.2-67.7 1-32.7-.2-49.1-1.4-56.1-2-11.4-1.1-20.8-2.2-27.5-3.1z"
     opacity=".79"
     fill="url(#I)"
     id="path1418" />
  <linearGradient
     id="J"
     x1="396"
     x2="396"
     y1="288"
     y2="488.37"
     gradientUnits="userSpaceOnUse">
    <stop
       stop-color="#00a79d"
       offset=".01"
       id="stop1420" />
    <stop
       stop-color="#1b75bc"
       offset="1"
       id="stop1422" />
  </linearGradient>
  <path
     d="M792 379.6l-10.7-12.8c.1 1 1 12.2-5.1 20.1-5.5 7.1-12.4 5.9-13.4 5.7-2.1.2-14.7 1.3-23.7-11.5-3.5-5-5.3-10.5-6.2-14.3l-16.5 12.9c-14.4-18.8-33.5-40.3-57.6-60.2-16.6-13.6-32.3-23.8-46.3-31.5-5 12.7-18.5 42.4-45.2 63-25.4 19.6-49.2 20.5-59.6 20.1-3.1-1.1-9.1-3.9-14.4-11.5-2.5-3.5-4.1-7.1-5.1-10-8.4 12.9-22.1 31-42.2 45.8-24 17.8-75.9 27.1-82.3 20.1-8.6-9.6-8.3-24.2-8.2-25.8l-24.7 30.1c-11.7-13.1-27.4-28.2-47.3-41.5-18-12.1-34.7-19.6-48.3-24.3-11.8 12.5-48.1 48.7-91.5 55.9-19.7 3.3-42.1 10.5-52.4-7.2-8.1-13.7-5-34.9-3.1-44.4-15.9 11.6-33 26.1-50.4 44.4-5.4 5.7-10.6 11.5-15.4 17.2-5.9-1.8-22-12.7-22-12.7L0 488.4l792-4.2"
     fill="url(#J)"
     id="path1425" />
  <linearGradient
     id="K"
     x1="396"
     x2="396"
     y1="327"
     y2="466.99"
     gradientUnits="userSpaceOnUse">
    <stop
       stop-color="#00a9bd"
       offset="0"
       id="stop1427" />
    <stop
       stop-color="#006582"
       offset="1"
       id="stop1429" />
  </linearGradient>
  <path
     d="M0 392.3L12.1 382c-.1.7-1 8.5 5 14 5.4 4.9 12.1 4.1 13 4 2.1.2 14.3.9 23-8 3.4-3.5 5.1-7.3 6-10l16 9c14-13.2 32.6-28.2 56-42 16.1-9.5 31.4-16.6 45-22 4.9 8.9 18 29.6 44 44 24.7 13.7 47.8 14.3 58 14 3-.8 8.9-2.7 14-8 2.4-2.5 4-5 5-7 8.1 9 21.5 21.6 41 32 23.3 12.4 73.8 19 80 14 8.3-6.7 8-16.9 8-18l24 21c11.4-9.1 26.7-19.7 46-29 17.5-8.5 33.7-13.7 47-17 11.5 8.7 46.8 34 89 39 19.2 2.3 40.9 7.4 51-5 7.8-9.6 4.8-24.3 3-31 15.5 8.1 32.1 18.2 49 31 5.3 4 10.3 8 15 12 5.8-1.3 13.5-3.7 21.4-8.9 8.4-5.5 20.5-10.2 20.6-10.4V467L0 464"
     fill="url(#K)"
     id="path1432" />
  <linearGradient
     id="L"
     x1="396"
     x2="396"
     y1="392.86"
     y2="555.38"
     gradientUnits="userSpaceOnUse">
    <stop
       stop-color="#509ab9"
       offset="0"
       id="stop1434" />
    <stop
       stop-color="#004f68"
       offset="1"
       id="stop1436" />
  </linearGradient>
  <path
     d="M.5 418c19.2-8.6 43.3-17 71.5-21.6 80.5-13.2 135.5 14 225 35.7 42.3 10.2 100.2 15.8 216 27 123 11.9 279 20.6 279 20.6v38.4L0 555.5.5 418z"
     fill="url(#L)"
     id="path1439" />
  <linearGradient
     id="M"
     x1="396.26"
     x2="396.26"
     y1="445.88"
     y2="578.61"
     gradientUnits="userSpaceOnUse">
    <stop
       stop-color="#56a4c4"
       offset="0"
       id="stop1441" />
    <stop
       stop-color="#003151"
       offset="1"
       id="stop1443" />
  </linearGradient>
  <path
     d="M.5 452.9c69.9 20.9 191.2 53.6 334 24.1 15.1-3.1 9.9-2.6 37-9C503 436.9 792 447.7 792 447.7v95.8c0-.7-537.3 103.9-790.3-44.6-1.6-33.2-.2-3.2-1-39.9-.1-1.8-.1-3.9-.2-6.1z"
     fill="url(#M)"
     id="path1446" />
  <linearGradient
     id="N"
     x1="396.5"
     x2="396.5"
     y1="500.7"
     y2="612.05"
     gradientUnits="userSpaceOnUse">
    <stop
       stop-color="#3ba9dc"
       offset="0"
       id="stop1448" />
    <stop
       stop-color="#003455"
       offset="1"
       id="stop1450" />
  </linearGradient>
  <path
     d="M792 500.7a3308.62 3308.62 0 0 1-392.2 23.6c-146.7.1-280.5-9.4-398.8-23.6v111.4h791V500.7z"
     fill="url(#N)"
     id="path1453" />
  <defs
     id="defs1457">
    <path
       id="P"
       d="m302 19.9c2.4 0 2.4-3.8 0-3.8s-2.4 3.8 0 3.8z" />
    <path
       id="Q"
       d="M172 50.2c1.6 0 1.6-2.5 0-2.5-1.6.1-1.6 2.5 0 2.5z" />
  </defs>
</svg>
