<svg xmlns="http://www.w3.org/2000/svg" xmlns:xlink="http://www.w3.org/1999/xlink" height="618.667" viewBox="-144 0 464 464" width="618.667" xmlns:v="https://vecta.io/nano"><path d="M88 360V32C88 14.328 73.672 0 56 0S24 14.328 24 32v328C8.891 371.332 0 389.113 0 408c0 30.93 25.07 56 56 56s56-25.07 56-56c0-18.887-8.891-36.668-24-48zm0 0" fill="#a3d4f7"/><g fill="#92aeba"><use xlink:href="#B"/><use xlink:href="#C"/><use xlink:href="#B" y="-64"/><use xlink:href="#C" y="-64"/><use xlink:href="#B" y="-128"/><use xlink:href="#C" y="-128"/><use xlink:href="#B" y="-192"/><use xlink:href="#C" y="-192"/><use xlink:href="#B" y="-256"/></g><path d="M64 377.016V64a8 8 0 1 0-16 0v313.016a30.4 30.4 0 0 0-24 30.184c0 17.676 14.328 32 32 32s32-14.324 32-32a30.4 30.4 0 0 0-24-30.184zm0 0" fill="#ff5b42"/><defs ><path id="B" d="M168 336h-48a8 8 0 1 1 0-16h48a8 8 0 1 1 0 16zm0 0"/><path id="C" d="M152 304h-32a8 8 0 1 1 0-16h32a8 8 0 1 1 0 16zm0 0"/></defs></svg>